<svg width="22" height="23" viewBox="0 0 22 23" fill="none" xmlns="http://www.w3.org/2000/svg">
<path d="M20.1667 11.5001C20.1682 12.7624 19.9305 14.0124 19.4672 15.1781C19.0039 16.3438 18.3243 17.4019 17.4675 18.2913C16.6178 19.1781 15.6093 19.8811 14.4995 20.3602C13.3898 20.8393 12.2006 21.085 11 21.0834C5.93725 21.0834 1.83333 16.793 1.83333 11.5001C1.83013 9.04281 2.73298 6.67879 4.35417 4.89957C5.20957 3.9559 6.24017 3.20463 7.38289 2.69175C8.52561 2.17887 9.75642 1.91516 11 1.91676C12.2006 1.91513 13.3898 2.16088 14.4995 2.63997C15.6093 3.11905 16.6178 3.82208 17.4675 4.70886C18.3243 5.5983 19.0039 6.65642 19.4672 7.82208C19.9305 8.98773 20.1682 10.2378 20.1667 11.5001Z" stroke="#CF9100" stroke-linecap="round" stroke-linejoin="round"/>
<path d="M20.1667 11.5001C18.8292 11.5001 15.1397 10.973 11.8374 12.4886C8.25 14.1355 5.65262 16.6899 4.52054 18.2788" stroke="#CF9100" stroke-linecap="round" stroke-linejoin="round"/>
<path d="M7.5625 2.61353C8.99708 3.99784 12.1275 7.52211 13.2917 11.021C14.4558 14.5199 14.8867 18.8218 15.1525 20.0461" stroke="#CF9100" stroke-linecap="round" stroke-linejoin="round"/>
<path d="M1.90392 10.3022C3.6355 10.4115 8.21929 10.5097 11.1526 9.20013C14.086 7.89057 16.61 5.4818 17.4758 4.71753M2.52083 15.148C3.32856 17.1921 4.78532 18.8828 6.64583 19.9354" stroke="#CF9100" stroke-linecap="round" stroke-linejoin="round"/>
<path d="M1.83333 11.5001C1.83013 9.04281 2.73298 6.67879 4.35417 4.89957C5.20957 3.9559 6.24017 3.20463 7.38289 2.69175C8.52561 2.17887 9.75642 1.91516 11 1.91676M14.6667 2.71409C15.7106 3.1916 16.6604 3.86804 17.4675 4.70886C18.3243 5.5983 19.0039 6.65642 19.4672 7.82208C19.9305 8.98773 20.1682 10.2378 20.1667 11.5001C20.1667 12.6798 19.9627 13.8102 19.5892 14.8543M11 21.0834C12.2006 21.085 13.3898 20.8393 14.4995 20.3602C15.6093 19.8811 16.6178 19.1781 17.4675 18.2913" stroke="#CF9100" stroke-linecap="round" stroke-linejoin="round"/>
</svg>
