<svg width="24" height="24" viewBox="0 0 24 24" fill="none" xmlns="http://www.w3.org/2000/svg">
<path d="M5.856 6.84012C5.74176 6.77851 5.61348 6.7476 5.48371 6.75042C5.35395 6.75324 5.22713 6.78969 5.11567 6.8562C5.00421 6.92272 4.91192 7.01702 4.84782 7.12988C4.78373 7.24275 4.75002 7.37032 4.75 7.50012V17.0001C4.75 17.199 4.82902 17.3898 4.96967 17.5305C5.11032 17.6711 5.30109 17.7501 5.5 17.7501C5.69891 17.7501 5.88968 17.6711 6.03033 17.5305C6.17098 17.3898 6.25 17.199 6.25 17.0001V8.75612L11.644 11.6601C11.866 11.7801 12.134 11.7801 12.356 11.6601L17.75 8.75612V17.0001C17.75 17.199 17.829 17.3898 17.9697 17.5305C18.1103 17.6711 18.3011 17.7501 18.5 17.7501C18.6989 17.7501 18.8897 17.6711 19.0303 17.5305C19.171 17.3898 19.25 17.199 19.25 17.0001V7.50012C19.25 7.37032 19.2163 7.24275 19.1522 7.12988C19.0881 7.01702 18.9958 6.92272 18.8843 6.8562C18.7729 6.78969 18.6461 6.75324 18.5163 6.75042C18.3865 6.7476 18.2582 6.77851 18.144 6.84012L12 10.1481L5.856 6.84012Z" fill="#CF9100"/>
<path fill-rule="evenodd" clip-rule="evenodd" d="M17.31 3.722C13.777 3.40614 10.223 3.40614 6.69 3.722L5.172 3.857C4.38129 3.9276 3.63746 4.26268 3.06064 4.8081C2.48382 5.35353 2.1077 6.07747 1.993 6.863C1.49493 10.2696 1.49493 13.7304 1.993 17.137C2.10794 17.9225 2.48431 18.6463 3.06131 19.1916C3.63831 19.7368 4.38226 20.0716 5.173 20.142L6.689 20.278C10.223 20.594 13.777 20.594 17.311 20.278L18.828 20.142C19.6186 20.0714 20.3623 19.7365 20.9391 19.1913C21.5159 18.646 21.8921 17.9223 22.007 17.137C22.5051 13.7304 22.5051 10.2696 22.007 6.863C21.8923 6.07731 21.516 5.35326 20.939 4.80781C20.3619 4.26237 19.6179 3.92739 18.827 3.857L17.311 3.722H17.31ZM6.824 5.216C10.2685 4.90803 13.7335 4.90803 17.178 5.216L18.695 5.352C19.1498 5.39239 19.5776 5.5849 19.9095 5.89845C20.2414 6.21199 20.4579 6.62825 20.524 7.08C21.0011 10.3426 21.0011 13.6573 20.524 16.92C20.4579 17.3717 20.2414 17.788 19.9095 18.1015C19.5776 18.4151 19.1498 18.6076 18.695 18.648L17.178 18.784C13.734 19.092 10.268 19.092 6.824 18.784L5.307 18.648C4.85223 18.6076 4.42435 18.4151 4.09249 18.1015C3.76062 17.788 3.54413 17.3717 3.478 16.92C3.00097 13.6573 3.00097 10.3427 3.478 7.08C3.54413 6.62825 3.76062 6.21199 4.09249 5.89845C4.42435 5.5849 4.85223 5.39239 5.307 5.352L6.824 5.216Z" fill="#CF9100"/>
</svg>
