<svg width="25" height="26" viewBox="0 0 25 26" fill="none" xmlns="http://www.w3.org/2000/svg">
<path d="M12.5 8.32812C11.6115 8.32812 10.743 8.60213 10.0043 9.11548C9.26554 9.62883 8.68976 10.3585 8.34976 11.2122C8.00976 12.0658 7.9208 13.0052 8.09413 13.9114C8.26746 14.8177 8.6953 15.6501 9.32354 16.3035C9.95179 16.9569 10.7522 17.4018 11.6236 17.5821C12.495 17.7624 13.3982 17.6699 14.2191 17.3162C15.0399 16.9626 15.7415 16.3638 16.2351 15.5956C16.7287 14.8273 16.9922 13.924 16.9922 13C16.9906 11.7614 16.5169 10.5741 15.6747 9.69827C14.8326 8.82247 13.6909 8.32974 12.5 8.32812ZM12.5 16.4531C11.8433 16.4531 11.2014 16.2506 10.6553 15.8712C10.1093 15.4917 9.68374 14.9524 9.43243 14.3215C9.18112 13.6905 9.11537 12.9962 9.24349 12.3263C9.3716 11.6565 9.68783 11.0412 10.1522 10.5583C10.6165 10.0753 11.2082 9.74647 11.8522 9.61323C12.4963 9.47999 13.1639 9.54837 13.7706 9.80973C14.3773 10.0711 14.8959 10.5137 15.2607 11.0815C15.6256 11.6494 15.8203 12.317 15.8203 13C15.8203 13.9158 15.4705 14.7941 14.8478 15.4417C14.2251 16.0893 13.3806 16.4531 12.5 16.4531ZM17.1875 2.64062H7.8125C6.41437 2.64224 5.07395 3.22057 4.08533 4.24874C3.0967 5.27691 2.54061 6.67095 2.53906 8.125V17.875C2.54061 19.3291 3.0967 20.7231 4.08533 21.7513C5.07395 22.7794 6.41437 23.3578 7.8125 23.3594H17.1875C18.5856 23.3578 19.926 22.7794 20.9147 21.7513C21.9033 20.7231 22.4594 19.3291 22.4609 17.875V8.125C22.4594 6.67095 21.9033 5.27691 20.9147 4.24874C19.926 3.22057 18.5856 2.64224 17.1875 2.64062ZM21.2891 17.875C21.2891 19.0063 20.8569 20.0913 20.0877 20.8913C19.3186 21.6912 18.2753 22.1406 17.1875 22.1406H7.8125C6.7247 22.1406 5.68145 21.6912 4.91226 20.8913C4.14306 20.0913 3.71094 19.0063 3.71094 17.875V8.125C3.71094 6.99369 4.14306 5.90871 4.91226 5.10875C5.68145 4.30879 6.7247 3.85938 7.8125 3.85938H17.1875C18.2753 3.85938 19.3186 4.30879 20.0877 5.10875C20.8569 5.90871 21.2891 6.99369 21.2891 8.125V17.875ZM18.5547 7.71875C18.5547 7.91962 18.4974 8.11598 18.3901 8.283C18.2828 8.45002 18.1303 8.58019 17.9518 8.65706C17.7734 8.73393 17.577 8.75405 17.3876 8.71486C17.1982 8.67567 17.0242 8.57894 16.8876 8.43691C16.751 8.29487 16.658 8.1139 16.6203 7.91689C16.5826 7.71988 16.602 7.51567 16.6759 7.33009C16.7498 7.14451 16.875 6.98589 17.0356 6.87429C17.1962 6.76269 17.385 6.70312 17.5781 6.70312C17.8371 6.70312 18.0855 6.81013 18.2687 7.00059C18.4518 7.19106 18.5547 7.44939 18.5547 7.71875Z" fill="#CF9100"/>
</svg>
