<svg width="26" height="26" viewBox="0 0 26 26" fill="none" xmlns="http://www.w3.org/2000/svg">
<path d="M21.9375 2.64062H4.0625C3.6854 2.64062 3.32374 2.79043 3.05708 3.05708C2.79043 3.32374 2.64063 3.6854 2.64062 4.0625V21.9375C2.64062 22.3146 2.79043 22.6763 3.05708 22.9429C3.32374 23.2096 3.6854 23.3594 4.0625 23.3594H21.9375C22.3146 23.3594 22.6763 23.2096 22.9429 22.9429C23.2096 22.6763 23.3594 22.3146 23.3594 21.9375V4.0625C23.3594 3.6854 23.2096 3.32374 22.9429 3.05708C22.6763 2.79043 22.3146 2.64062 21.9375 2.64062ZM22.1406 21.9375C22.1406 21.9914 22.1192 22.043 22.0811 22.0811C22.043 22.1192 21.9914 22.1406 21.9375 22.1406H4.0625C4.00863 22.1406 3.95696 22.1192 3.91887 22.0811C3.88078 22.043 3.85938 21.9914 3.85938 21.9375V4.0625C3.85938 4.00863 3.88078 3.95696 3.91887 3.91887C3.95696 3.88078 4.00863 3.85938 4.0625 3.85938H21.9375C21.9914 3.85938 22.043 3.88078 22.0811 3.91887C22.1192 3.95696 22.1406 4.00863 22.1406 4.0625V21.9375ZM9.54688 11.375V17.875C9.54688 18.0366 9.48267 18.1916 9.36839 18.3059C9.25411 18.4202 9.09912 18.4844 8.9375 18.4844C8.77588 18.4844 8.62089 18.4202 8.50661 18.3059C8.39233 18.1916 8.32812 18.0366 8.32812 17.875V11.375C8.32812 11.2134 8.39233 11.0584 8.50661 10.9441C8.62089 10.8298 8.77588 10.7656 8.9375 10.7656C9.09912 10.7656 9.25411 10.8298 9.36839 10.9441C9.48267 11.0584 9.54688 11.2134 9.54688 11.375ZM18.4844 14.2188V17.875C18.4844 18.0366 18.4202 18.1916 18.3059 18.3059C18.1916 18.4202 18.0366 18.4844 17.875 18.4844C17.7134 18.4844 17.5584 18.4202 17.4441 18.3059C17.3298 18.1916 17.2656 18.0366 17.2656 17.875V14.2188C17.2656 13.6262 17.0302 13.0578 16.6112 12.6388C16.1922 12.2198 15.6238 11.9844 15.0312 11.9844C14.4387 11.9844 13.8703 12.2198 13.4513 12.6388C13.0323 13.0578 12.7969 13.6262 12.7969 14.2188V17.875C12.7969 18.0366 12.7327 18.1916 12.6184 18.3059C12.5041 18.4202 12.3491 18.4844 12.1875 18.4844C12.0259 18.4844 11.8709 18.4202 11.7566 18.3059C11.6423 18.1916 11.5781 18.0366 11.5781 17.875V11.375C11.5781 11.2134 11.6423 11.0584 11.7566 10.9441C11.8709 10.8298 12.0259 10.7656 12.1875 10.7656C12.3491 10.7656 12.5041 10.8298 12.6184 10.9441C12.7327 11.0584 12.7969 11.2134 12.7969 11.375V11.5893C13.2991 11.1631 13.9127 10.8894 14.5654 10.8005C15.218 10.7117 15.8825 10.8113 16.4803 11.0877C17.0782 11.3641 17.5846 11.8058 17.9396 12.3606C18.2947 12.9153 18.4837 13.5601 18.4844 14.2188ZM9.95312 8.53125C9.95312 8.73212 9.89356 8.92848 9.78196 9.0955C9.67036 9.26252 9.51174 9.39269 9.32616 9.46956C9.14058 9.54643 8.93637 9.56655 8.73936 9.52736C8.54235 9.48817 8.36138 9.39144 8.21934 9.24941C8.07731 9.10737 7.98058 8.9264 7.94139 8.72939C7.9022 8.53238 7.92232 8.32817 7.99919 8.14259C8.07606 7.95701 8.20623 7.79839 8.37325 7.68679C8.54027 7.57519 8.73663 7.51562 8.9375 7.51562C9.20686 7.51562 9.46519 7.62263 9.65566 7.81309C9.84612 8.00356 9.95312 8.26189 9.95312 8.53125Z" fill="#CF9100"/>
</svg>
