<svg width="37" height="32" viewBox="0 0 37 32" fill="none" xmlns="http://www.w3.org/2000/svg">
<path d="M20.45 23.0853C20.15 22.8269 20.006 22.5148 20.018 22.1488C20.031 21.7828 20.1875 21.4707 20.4875 21.2123L24.725 17.5634H8C7.575 17.5634 7.2185 17.4394 6.9305 17.1914C6.6435 16.9442 6.5 16.6377 6.5 16.2717C6.5 15.9057 6.6435 15.5988 6.9305 15.3508C7.2185 15.1036 7.575 14.9801 8 14.9801H24.725L20.45 11.2988C20.15 11.0405 20 10.7335 20 10.3778C20 10.0231 20.15 9.71651 20.45 9.45818C20.75 9.19985 21.1065 9.07068 21.5195 9.07068C21.9315 9.07068 22.2875 9.19985 22.5875 9.45818L29.45 15.3676C29.6 15.4967 29.7065 15.6367 29.7695 15.7873C29.8315 15.938 29.8625 16.0995 29.8625 16.2717C29.8625 16.4439 29.8315 16.6054 29.7695 16.7561C29.7065 16.9068 29.6 17.0467 29.45 17.1759L22.55 23.1176C22.275 23.3544 21.9315 23.4728 21.5195 23.4728C21.1065 23.4728 20.75 23.3436 20.45 23.0853Z" fill="#FEFEFE" stroke="black"/>
</svg>
