<svg width="58" height="58" viewBox="0 0 58 58" fill="none" xmlns="http://www.w3.org/2000/svg">
<path d="M41.4121 11.6001L30.3534 0.580057C29.9924 0.21607 29.5016 0.0103715 28.9889 0.00819614C28.4763 0.00602081 27.9838 0.207547 27.6197 0.568457L27.6081 0.580057L16.5881 11.6001H5.80006C5.28731 11.6001 4.79556 11.8037 4.43299 12.1663C4.07042 12.5289 3.86673 13.0206 3.86673 13.5334V48.3334C3.86673 48.8461 4.07042 49.3379 4.43299 49.7005C4.79556 50.063 5.28731 50.2667 5.80006 50.2667H52.2001C52.7128 50.2667 53.2046 50.063 53.5671 49.7005C53.9297 49.3379 54.1334 48.8461 54.1334 48.3334V13.5334C54.1334 13.0206 53.9297 12.5289 53.5671 12.1663C53.2046 11.8037 52.7128 11.6001 52.2001 11.6001H41.4121ZM29.0001 4.67872L35.9214 11.6001H22.0787L29.0001 4.67872ZM50.2667 46.4001H7.7334V15.4667H50.2667V46.4001ZM19.3334 27.0667C18.3079 27.0667 17.3244 26.6593 16.5993 25.9342C15.8741 25.2091 15.4667 24.2256 15.4667 23.2001C15.4667 22.1746 15.8741 21.1911 16.5993 20.4659C17.3244 19.7408 18.3079 19.3334 19.3334 19.3334C20.3589 19.3334 21.3424 19.7408 22.0675 20.4659C22.7927 21.1911 23.2001 22.1746 23.2001 23.2001C23.2001 24.2256 22.7927 25.2091 22.0675 25.9342C21.3424 26.6593 20.3589 27.0667 19.3334 27.0667ZM46.4001 42.5334H17.4001L23.2001 30.9334L28.0334 40.6001L36.7334 23.2001L46.4001 42.5334Z" fill="#D9D9D9"/>
</svg>
