<svg width="25" height="25" viewBox="0 0 25 25" fill="none" xmlns="http://www.w3.org/2000/svg">
<path d="M16.3341 14.5009H15.5441L15.2641 14.2309C16.278 13.0549 16.8352 11.5535 16.8341 10.0009C16.8341 8.71527 16.4529 7.45857 15.7387 6.38965C15.0244 5.32073 14.0093 4.48761 12.8216 3.99564C11.6338 3.50367 10.3269 3.37495 9.06602 3.62575C7.80515 3.87655 6.64696 4.49562 5.73792 5.40466C4.82887 6.3137 4.20981 7.47189 3.95901 8.73277C3.7082 9.99364 3.83692 11.3006 4.32889 12.4883C4.82086 13.676 5.65398 14.6912 6.7229 15.4054C7.79182 16.1196 9.04853 16.5009 10.3341 16.5009C11.9441 16.5009 13.4241 15.9109 14.5641 14.9309L14.8341 15.2109V16.0009L19.8341 20.9909L21.3241 19.5009L16.3341 14.5009ZM10.3341 14.5009C7.84411 14.5009 5.83411 12.4909 5.83411 10.0009C5.83411 7.51085 7.84411 5.50085 10.3341 5.50085C12.8241 5.50085 14.8341 7.51085 14.8341 10.0009C14.8341 12.4909 12.8241 14.5009 10.3341 14.5009Z" fill="#D9D9D9"/>
</svg>
