<svg width="64" height="59" viewBox="0 0 64 59" fill="none" xmlns="http://www.w3.org/2000/svg">
<path d="M26.6666 22.125C23.7333 22.125 21.3333 24.3867 21.3333 27.1646C21.3333 28.5659 21.92 29.795 22.9066 30.7292L32 39.3334L41.12 30.7292C42.08 29.8196 42.6666 28.5413 42.6666 27.1646C42.6666 24.3867 40.2666 22.125 37.3333 22.125C35.8933 22.125 34.5333 22.6905 33.5733 23.6L32 25.075L30.4533 23.6246C29.9625 23.1545 29.3747 22.7796 28.7243 22.5221C28.074 22.2646 27.3744 22.1296 26.6666 22.125ZM53.3333 9.83337C56.2666 9.83337 58.6666 12.0459 58.6666 14.75V44.25C58.6666 46.9542 56.2666 49.1667 53.3333 49.1667H10.6666C7.73331 49.1667 5.33331 46.9542 5.33331 44.25V14.75C5.33331 12.0459 7.73331 9.83337 10.6666 9.83337H53.3333ZM44.5333 19.8142L53.3333 14.75H10.6666L19.4666 19.8142C18.3733 20.773 17.4666 21.9284 16.88 23.2313L10.6666 19.6667V44.25H53.3333V19.6667L47.12 23.2313C46.5333 21.9284 45.6266 20.773 44.5333 19.8142Z" fill="#D9D9D9"/>
</svg>
